<?xml version="1.0" standalone="no"?>
<!DOCTYPE svg PUBLIC "-//W3C//DTD SVG 20010904//EN"
 "http://www.w3.org/TR/2001/REC-SVG-20010904/DTD/svg10.dtd">
<svg version="1.0" xmlns="http://www.w3.org/2000/svg"
 width="700.000000pt" height="700.000000pt" viewBox="0 0 700.000000 700.000000"
 preserveAspectRatio="xMidYMid meet">
<metadata>
Created by potrace 1.14, written by Peter Selinger 2001-2017
</metadata>
<g transform="translate(0.000000,700.000000) scale(0.100000,-0.100000)"
fill="#000000" stroke="none">
<path d="M445 6564 c-237 -238 -429 -439 -427 -445 2 -9 841 -1134 905 -1214
4 -5 89 -118 188 -250 99 -132 188 -249 197 -260 17 -20 29 -20 440 -20 l422
0 727 -727 728 -728 -13 -32 c-64 -161 -83 -250 -87 -398 -5 -192 43 -383 136
-540 59 -100 196 -243 971 -1016 815 -813 845 -843 918 -877 86 -42 108 -47
210 -53 117 -6 230 29 325 101 66 50 810 803 841 851 60 93 77 163 72 294 -5
124 -22 181 -79 266 -42 62 -1712 1728 -1784 1779 -121 87 -301 161 -443 182
-111 16 -307 6 -398 -22 -24 -7 -44 -11 -44 -9 0 2 -36 -12 -80 -30 l-80 -34
-729 729 -730 730 0 425 c0 235 -1 427 -3 428 -8 5 -634 472 -638 476 -3 3
-219 165 -480 360 -261 195 -481 360 -490 367 -48 38 -138 103 -141 102 -2 -1
-197 -196 -434 -435z"/>
<path d="M4889 6996 c-2 -2 -33 -6 -69 -10 -123 -11 -265 -43 -415 -91 -317
-103 -626 -312 -864 -585 -88 -100 -261 -370 -261 -405 0 -8 -4 -16 -9 -20
-22 -13 -128 -321 -146 -420 -2 -16 -7 -41 -10 -55 -3 -14 -7 -45 -10 -70 -3
-25 -8 -56 -11 -70 -2 -14 -7 -78 -9 -143 l-5 -118 561 -561 561 -562 72 12
c133 22 147 23 254 24 121 1 222 -9 327 -32 190 -41 397 -136 555 -254 69 -52
58 -42 253 -235 l166 -164 43 17 c108 43 322 177 441 278 325 275 555 658 648
1078 32 145 34 176 34 440 -1 216 -3 258 -23 355 -13 60 -33 127 -45 147 -36
66 -127 95 -200 64 -19 -7 -246 -227 -550 -531 l-518 -518 -107 16 c-59 9
-117 19 -128 21 -12 2 -39 7 -60 10 -43 7 -324 54 -364 61 -14 3 -72 12 -130
21 -118 17 -146 26 -147 46 0 14 -10 76 -18 118 -3 13 -7 42 -10 65 -3 22 -8
47 -10 55 -2 8 -7 35 -10 60 -3 25 -8 52 -10 60 -2 8 -7 33 -10 55 -3 23 -8
52 -10 65 -3 14 -14 84 -26 155 -12 72 -23 139 -25 150 -2 11 -7 40 -10 65 -3
25 -8 47 -10 49 -3 3 233 244 525 535 554 557 550 552 536 621 -2 11 -4 27 -4
36 -1 9 -18 35 -38 58 -42 46 -96 64 -250 87 -26 3 -57 9 -68 11 -24 5 -381
13 -386 9z"/>
<path d="M1284 2517 c-583 -584 -1082 -1091 -1108 -1126 -106 -145 -167 -329
-167 -511 0 -58 3 -116 6 -130 3 -14 8 -41 11 -59 7 -40 49 -161 72 -206 103
-205 291 -367 508 -439 107 -35 179 -45 309 -41 181 5 354 66 495 174 36 27
452 437 924 910 810 810 859 861 849 883 -25 51 -70 222 -79 303 -3 22 -7 51
-10 65 -6 34 -6 273 1 313 3 18 7 46 10 62 17 98 52 53 -372 477 l-388 387
-1061 -1062z m-313 -1327 c107 -28 207 -133 230 -240 32 -150 -43 -306 -179
-371 -70 -33 -180 -37 -254 -10 -197 75 -274 315 -157 487 47 68 128 126 194
138 15 3 29 6 30 8 7 7 96 -1 136 -12z"/>
</g>
</svg>
