<?xml version="1.0" encoding="UTF-8" standalone="no"?>
<svg
   height="260"
   viewBox="0 0 260 512"
   version="1.1"
   id="svg1"
   sodipodi:docname="logo.svg"
   width="260"
   inkscape:version="1.3 (0e150ed6c4, 2023-07-21)"
   xmlns:inkscape="http://www.inkscape.org/namespaces/inkscape"
   xmlns:sodipodi="http://sodipodi.sourceforge.net/DTD/sodipodi-0.dtd"
   xmlns="http://www.w3.org/2000/svg"
   xmlns:svg="http://www.w3.org/2000/svg">
  <defs
     id="defs1" />
  <sodipodi:namedview
     id="namedview1"
     pagecolor="#ffffff"
     bordercolor="#000000"
     borderopacity="0.25"
     inkscape:showpageshadow="2"
     inkscape:pageopacity="0.0"
     inkscape:pagecheckerboard="0"
     inkscape:deskcolor="#d1d1d1"
     showborder="false"
     inkscape:clip-to-page="false"
     inkscape:zoom="2.4296875"
     inkscape:cx="130.05788"
     inkscape:cy="129.85209"
     inkscape:window-width="1920"
     inkscape:window-height="1011"
     inkscape:window-x="0"
     inkscape:window-y="0"
     inkscape:window-maximized="1"
     inkscape:current-layer="svg1" />
  <!--! Font Awesome Free 6.4.2 by @fontawesome - https://fontawesome.com License - https://fontawesome.com/license (Commercial License) Copyright 2023 Fonticons, Inc. -->
  <style
     id="style1">svg{fill:#ff0000}</style>
  <path
     d="m 375.63528,395.66201 -117.1,-117.1 c -23.1,-23.1 -57.6,-27.6 -85.4,-13.9 l -106.599997,-106.6 V 95.962008 L -61.46472,-0.03799166 l -64,63.99999966 96,128.000002 h 62.100003 l 106.599997,106.6 c -13.6,27.8 -9.2,62.3 13.9,85.4 l 117.1,117.1 c 14.6,14.6 38.2,14.6 52.7,0 l 52.7,-52.7 c 14.5,-14.6 14.5,-38.2 0,-52.7 z m -169.4,-170.7 c 28.3,0 54.9,11 74.9,31 l 19.4,19.4 c 15.8,-6.9 30.8,-16.5 43.8,-29.5 37.1,-37.1 49.7,-89.3 37.9,-136.7 -2.2,-9 -13.5,-12.100002 -20.1,-5.5 l -74.4,74.4 -67.9,-11.3 -11.3,-67.900002 74.4,-74.4 c 6.6,-6.6 3.4,-17.8999995 -5.7,-20.1999996 -47.4,-11.6999999 -99.6,0.9 -136.6,37.8999996 -28.5,28.5 -41.900002,66.100002 -41.200002,103.600002 l 82.100002,82.1 c 8.1,-1.9 16.5,-2.9 24.7,-2.9 z m -103.9,82 -56.699997,-56.7 -152.400003,152.5 c -25,25 -25,65.5 0,90.5 25,25 65.5,25 90.5,0 l 123.6,-123.6 c -7.600002,-19.9 -9.900002,-41.6 -5,-62.7 z m -163.8,165 c -13.2,0 -24,-10.8 -24,-24 0,-13.3 10.7,-24 24,-24 13.3,0 24,10.7 24,24 0,13.2 -10.7,24 -24,24 z"
     id="path1" />
</svg>
